<svg aria-hidden="true" style="position: absolute; width: 0; height: 0; overflow: hidden;" version="1.1" xmlns="http://www.w3.org/2000/svg" xmlns:xlink="http://www.w3.org/1999/xlink">
<defs>
<symbol id="icon-bookmark-fill" viewBox="0 0 32 32">
<path d="M6 0v32l10-10 10 10v-32z"></path>
</symbol>
<symbol id="icon-trashcan" viewBox="0 0 24 24">
<path d="M15 4v-3h-6v3h-4v2h14v-2h-4zM13.018 4h-2v-1h2v1zM5 7v15l2 2h10l2-2v-15h-14zM8 22h-1v-11h1v11zM10 22h-1v-11h1v11zM12 22h-1v-11h1v11zM17 22h-4v-11h4v11zM17 10h-10v-1h10v1z"></path>
</symbol>
<symbol id="icon-search" viewBox="0 0 24 24">
<path d="M0.793 21.168l1.414 1.414 4.385-4.385-1.377-1.451-4.422 4.422zM14.125 1c-4.9 0-8.875 3.974-8.875 8.875 0 1.919 0.617 3.69 1.652 5.143l1.67 1.76c1.521 1.227 3.447 1.973 5.553 1.973 4.902 0 8.875-3.974 8.875-8.875s-3.973-8.876-8.875-8.876zM14.125 16.75c-3.791 0-6.875-3.084-6.875-6.875s3.084-6.875 6.875-6.875 6.875 3.084 6.875 6.875-3.084 6.875-6.875 6.875z"></path>
</symbol>
<symbol id="icon-bookmark" viewBox="0 0 24 24">
<path d="M3 0v23.18l8.182-4.764 8.818 5.135v-23.551h-17zM5 19.701v-17.701h6v14.375l-0.637 0.312-5.363 3.014zM18 20.072l-5.562-3.385-0.438-0.291v-14.396h6v18.072z"></path>
</symbol>
<symbol id="icon-heart" viewBox="0 0 24 24">
<path d="M12 19.654l-0.035 0.043-7.965-10.197c-0.363-0.458-1-1.011-1-2.268 0-2.206 1.795-4 4-4 2.206 0 5 1.794 5 4v-3.313c-1.075-1.618-2.915-2.687-5-2.687-3.309 0-6 2.691-6 6 0 2.056 1 3 1.258 3.669l9.742 11.822v-3.069zM12 19.654l0.035 0.043 7.965-10.197c0.363-0.458 1-1.011 1-2.268 0-2.206-1.795-4-4-4s-5 1.794-5 4v-3.313c1.076-1.618 2.916-2.687 5-2.687 3.309 0 6 2.691 6 6 0 2.056-1 3-1.258 3.669l-9.742 11.822v-3.069z"></path>
</symbol>
<symbol id="icon-forbidden" viewBox="0 0 24 24">
<path d="M11.5 3c-5.238 0-9.5 4.262-9.5 9.5s4.262 9.5 9.5 9.5 9.5-4.262 9.5-9.5-4.262-9.5-9.5-9.5zM4 12.5c0-4.136 3.364-7.5 7.5-7.5 1.526 0 2.946 0.461 4.132 1.247l-10.385 10.385c-0.786-1.186-1.247-2.606-1.247-4.132zM11.5 20c-1.526 0-2.946-0.461-4.132-1.247l10.385-10.385c0.786 1.186 1.247 2.606 1.247 4.132 0 4.136-3.364 7.5-7.5 7.5z"></path>
</symbol>
<symbol id="icon-users" viewBox="0 0 24 24">
<path d="M15 14.363c0 0-6.182 0-8.5 5.41 0 0 3.871 1.545 8.5 1.545s8.5-1.545 8.5-1.545c-2.318-5.41-8.5-5.41-8.5-5.41zM15 13.592c2.318 0 3.863-2.318 3.863-6.183s-3.863-3.864-3.863-3.864-3.863 0-3.863 3.864 1.545 6.183 3.863 6.183zM7.5 10.955c0.762 0 1.416-0.316 1.935-0.885-0.192-0.777-0.298-1.665-0.298-2.661 0-1.485 0.571-2.396 1.274-2.958-0.766-1.765-2.911-1.769-2.911-1.769s-3.182 0-3.182 3.182c0 3.182 1.273 5.091 3.182 5.091zM10.5 13.449l-0.108-1.258c-1.558-0.596-2.892-0.6-2.892-0.6s-5.091 0-7 4.455c0 0 2.461 0.981 5.645 1.22 2.773-2.903 4.355-3.817 4.355-3.817z"></path>
</symbol>
<symbol id="icon-stopwatch" viewBox="0 0 24 24">
<path d="M13 4.050v-1.050h0.5c0.276 0 0.5-0.224 0.5-0.5v-2c0-0.276-0.224-0.5-0.5-0.5h-3c-0.276 0-0.5 0.224-0.5 0.5v2c0 0.276 0.224 0.5 0.5 0.5h0.5v1.054c-0.901 0.092-1.767 0.304-2.583 0.619l-1.047-1.011-1.827-1.826-3.518 3.518 2.271 2.271c-1.434 1.73-2.296 3.951-2.296 6.375 0 5.523 4.477 10 10 10s10-4.477 10-10c0-5.186-3.946-9.448-9-9.95zM11 1h2v1h-2v-1zM3.439 5.354l2.104-2.104 1.167 1.166-2.104 2.104-1.167-1.166zM12 22c-4.411 0-8-3.589-8-8s3.589-8 8-8 8 3.589 8 8-3.589 8-8 8zM11.207 9.459c-0.391-0.391-1.023-0.391-1.414 0s-0.391 1.023 0 1.414l1.964 1.965-2.628 3.672c-0.271 0.481-0.101 1.091 0.381 1.361 0.155 0.088 0.323 0.129 0.489 0.129 0.35 0 0.689-0.184 0.872-0.51l3-4.334c0.221-0.391 0.153-0.88-0.164-1.197l-2.5-2.5z"></path>
</symbol>
<symbol id="icon-arrow-long-left" viewBox="0 0 20 20">
<path d="M0.75 10l5.25-5.5v3.5h13v4h-13v3.5l-5.25-5.5z"></path>
</symbol>
<symbol id="icon-arrow-long-right" viewBox="0 0 20 20">
<path d="M14 15.5v-3.5h-13v-4h13v-3.5l5.25 5.5-5.25 5.5z"></path>
</symbol>
<symbol id="icon-minus" viewBox="0 0 20 20">
<path d="M16 10c0 0.553-0.048 1-0.601 1h-10.798c-0.552 0-0.601-0.447-0.601-1s0.049-1 0.601-1h10.799c0.552 0 0.6 0.447 0.6 1z"></path>
</symbol>
<symbol id="icon-plus" viewBox="0 0 20 20">
<path d="M16 10c0 0.553-0.048 1-0.601 1h-4.399v4.399c0 0.552-0.447 0.601-1 0.601s-1-0.049-1-0.601v-4.399h-4.399c-0.552 0-0.601-0.447-0.601-1s0.049-1 0.601-1h4.399v-4.399c0-0.553 0.447-0.601 1-0.601s1 0.048 1 0.601v4.399h4.399c0.553 0 0.601 0.447 0.601 1z"></path>
</symbol>
</defs>
</svg>
